# xmcd
#
# Track frame offsets: 
#        150
#        18144
#        41051
#        56317
#        78876
#        94115
#        107015
#        125267
#        139160
#
# Disc length: 2117 seconds
#
# Revision: 0
# Processed by: cddbd v1.5.1PL0 Copyright (c) Steve Scherf et al.
# Submitted via: ExactAudioCopy v0.95a5
#
DISCID=66084309
DTITLE=Jorma Kaukonen - 2000-07-20 BB King Blues Club New York, NY 
DYEAR=2000
DGENRE=Blues
TTITLE0=Been So Long
TTITLE1=Hesitation Blues
TTITLE2=How Long Blues
TTITLE3=The Terrible Operation
TTITLE4=Let Us get Together Right Down Here
TTITLE5=Candyman
TTITLE6=Come Back Baby
TTITLE7=A Life Well Lived 
TTITLE8=99 Year Blues
EXTD=
EXTT0=
EXTT1=
EXTT2=
EXTT3=
EXTT4=
EXTT5=
EXTT6=
EXTT7=
EXTT8=
PLAYORDER=
